C:\Users\Nicos\Documents\OpenSimProjects\SprintingProject\Study1\PredictiveResults\IC_pred_Sprinting_optimum_28-October-2023__09-53-48_p02_maxVel_01___HTD_Minus_6_GRF.mot
version=1
nRows=10
nColumns=127
inDegrees=yes
endheader
time	ground_force_vx	ground_force_vy	ground_force_vz	ground_force_px	ground_force_py	ground_force_pz	ground_torque_x	ground_torque_y	ground_torque_z	1_ground_force_vx	1_ground_force_vy	1_ground_force_vz	1_ground_force_px	1_ground_force_py	1_ground_force_pz	1_ground_torque_x	1_ground_torque_y	1_ground_torque_z	2_ground_force_vx	2_ground_force_vy	2_ground_force_vz	2_ground_force_px	2_ground_force_py	2_ground_force_pz	2_ground_torque_x	2_ground_torque_y	2_ground_torque_z	3_ground_force_vx	3_ground_force_vy	3_ground_force_vz	3_ground_force_px	3_ground_force_py	3_ground_force_pz	3_ground_torque_x	3_ground_torque_y	3_ground_torque_z	4_ground_force_vx	4_ground_force_vy	4_ground_force_vz	4_ground_force_px	4_ground_force_py	4_ground_force_pz	4_ground_torque_x	4_ground_torque_y	4_ground_torque_z	5_ground_force_vx	5_ground_force_vy	5_ground_force_vz	5_ground_force_px	5_ground_force_py	5_ground_force_pz	5_ground_torque_x	5_ground_torque_y	5_ground_torque_z	6_ground_force_vx	6_ground_force_vy	6_ground_force_vz	6_ground_force_px	6_ground_force_py	6_ground_force_pz	6_ground_torque_x	6_ground_torque_y	6_ground_torque_z	7_ground_force_vx	7_ground_force_vy	7_ground_force_vz	7_ground_force_px	7_ground_force_py	7_ground_force_pz	7_ground_torque_x	7_ground_torque_y	7_ground_torque_z	8_ground_force_vx	8_ground_force_vy	8_ground_force_vz	8_ground_force_px	8_ground_force_py	8_ground_force_pz	8_ground_torque_x	8_ground_torque_y	8_ground_torque_z	9_ground_force_vx	9_ground_force_vy	9_ground_force_vz	9_ground_force_px	9_ground_force_py	9_ground_force_pz	9_ground_torque_x	9_ground_torque_y	9_ground_torque_z	10_ground_force_vx	10_ground_force_vy	10_ground_force_vz	10_ground_force_px	10_ground_force_py	10_ground_force_pz	10_ground_torque_x	10_ground_torque_y	10_ground_torque_z	11_ground_force_vx	11_ground_force_vy	11_ground_force_vz	11_ground_force_px	11_ground_force_py	11_ground_force_pz	11_ground_torque_x	11_ground_torque_y	11_ground_torque_z	12_ground_force_vx	12_ground_force_vy	12_ground_force_vz	12_ground_force_px	12_ground_force_py	12_ground_force_pz	12_ground_torque_x	12_ground_torque_y	12_ground_torque_z	13_ground_force_vx	13_ground_force_vy	13_ground_force_vz	13_ground_force_px	13_ground_force_py	13_ground_force_pz	13_ground_torque_x	13_ground_torque_y	13_ground_torque_z
0.103813	333.240083	806.098468	-67.917524	0.342561	-0.019198	0.413978	0.000000	0.000000	0.000000	131.312825	349.636904	-1.938538	0.299236	-0.011885	0.433378	0.000000	0.000000	0.000000	49.695830	159.619360	29.617781	0.269699	-0.007393	0.422855	0.000000	0.000000	0.000000	67.984198	217.539982	38.662912	0.273736	-0.009076	0.400745	0.000000	0.000000	0.000000	-0.000856	0.004073	0.001387	0.187928	0.008739	0.449265	0.000000	0.000000	0.000000	2.972019	35.176397	12.004267	0.242032	-0.002593	0.416341	0.000000	0.000000	0.000000	-0.000000	0.000001	0.000000	0.131367	0.016605	0.390287	0.000000	0.000000	0.000000	-0.000000	0.000000	0.000000	0.483175	0.171799	0.122307	0.000000	0.000000	0.000000	-0.000000	0.000000	0.000000	0.462602	0.192295	0.103242	0.000000	0.000000	0.000000	-0.000000	0.000000	0.000000	0.443170	0.203158	0.110244	0.000000	0.000000	0.000000	-0.000000	0.000000	0.000000	0.436969	0.198202	0.129732	0.000000	0.000000	0.000000	-0.000000	0.000000	0.000000	0.400646	0.241527	0.083269	0.000000	0.000000	0.000000	-0.000000	0.000000	0.000000	0.422619	0.213866	0.114599	0.000000	0.000000	0.000000	-0.000000	0.000000	0.000000	0.340414	0.256700	0.132016	0.000000	0.000000	0.000000
0.105740	361.894966	792.976264	-36.387418	0.341712	-0.019134	0.414109	0.000000	0.000000	0.000000	117.731773	294.253937	15.780395	0.299095	-0.010745	0.433333	0.000000	0.000000	0.000000	30.880869	101.675776	19.379330	0.270054	-0.005523	0.422659	0.000000	0.000000	0.000000	47.239807	153.205200	27.473760	0.274012	-0.007303	0.400565	0.000000	0.000000	0.000000	-0.000017	0.000059	0.000018	0.189914	0.012662	0.448730	0.000000	0.000000	0.000000	0.013572	6.690020	2.337633	0.242940	-0.000026	0.416030	0.000000	0.000000	0.000000	-0.000000	0.000000	0.000000	0.134486	0.021966	0.389514	0.000000	0.000000	0.000000	-0.000000	0.000000	-0.000000	0.521087	0.170357	0.122714	0.000000	0.000000	0.000000	-0.000000	0.000000	-0.000000	0.499052	0.190492	0.103740	0.000000	0.000000	0.000000	-0.000000	0.000000	0.000000	0.479027	0.200953	0.110640	0.000000	0.000000	0.000000	-0.000000	0.000000	0.000000	0.473105	0.195831	0.130042	0.000000	0.000000	0.000000	-0.000000	0.000000	0.000000	0.433535	0.238461	0.083656	0.000000	0.000000	0.000000	-0.000000	0.000000	0.000000	0.457570	0.211215	0.114928	0.000000	0.000000	0.000000	-0.000000	0.000000	0.000000	0.371743	0.252262	0.132081	0.000000	0.000000	0.000000
0.107137	378.005416	775.945784	-13.815523	0.340946	-0.019012	0.414164	0.000000	0.000000	0.000000	104.599338	251.561638	22.791723	0.298957	-0.009793	0.433252	0.000000	0.000000	0.000000	18.506000	63.412306	12.782042	0.270422	-0.003998	0.422516	0.000000	0.000000	0.000000	32.687032	108.635079	20.278964	0.274309	-0.005852	0.400434	0.000000	0.000000	0.000000	-0.000001	0.000002	0.000001	0.191666	0.015722	0.448342	0.000000	0.000000	0.000000	-0.155298	2.136362	0.731022	0.243774	0.002020	0.415804	0.000000	0.000000	0.000000	-0.000000	0.000000	0.000000	0.137185	0.026092	0.388956	0.000000	0.000000	0.000000	-0.000000	0.000000	-0.000000	0.548595	0.169308	0.123105	0.000000	0.000000	0.000000	-0.000000	0.000000	-0.000000	0.525511	0.189162	0.104197	0.000000	0.000000	0.000000	-0.000000	0.000000	0.000000	0.505085	0.199330	0.111026	0.000000	0.000000	0.000000	-0.000000	0.000000	0.000000	0.499386	0.194093	0.130373	0.000000	0.000000	0.000000	-0.000000	0.000000	0.000000	0.457478	0.236174	0.084036	0.000000	0.000000	0.000000	-0.000000	0.000000	0.000000	0.483000	0.209258	0.115270	0.000000	0.000000	0.000000	-0.000000	0.000000	0.000000	0.394660	0.248969	0.132246	0.000000	0.000000	0.000000
0.107747	383.642883	766.184518	-3.802628	0.340571	-0.018932	0.414175	0.000000	0.000000	0.000000	98.179613	232.395343	24.692757	0.298890	-0.009340	0.433202	0.000000	0.000000	0.000000	13.735983	48.284142	10.078667	0.270616	-0.003284	0.422453	0.000000	0.000000	0.000000	26.724350	90.208479	17.304166	0.274468	-0.005172	0.400376	0.000000	0.000000	0.000000	-0.000000	0.000000	0.000000	0.192520	0.017114	0.448175	0.000000	0.000000	0.000000	-0.114152	1.074204	0.359133	0.244190	0.002964	0.415706	0.000000	0.000000	0.000000	-0.000000	0.000000	0.000000	0.138486	0.027955	0.388716	0.000000	0.000000	0.000000	-0.000000	0.000000	-0.000000	0.560616	0.168848	0.123301	0.000000	0.000000	0.000000	-0.000000	0.000000	-0.000000	0.537076	0.188576	0.104421	0.000000	0.000000	0.000000	-0.000000	0.000000	0.000000	0.516483	0.198616	0.111221	0.000000	0.000000	0.000000	-0.000000	0.000000	0.000000	0.510886	0.193330	0.130544	0.000000	0.000000	0.000000	-0.000000	0.000000	0.000000	0.467963	0.235160	0.084227	0.000000	0.000000	0.000000	-0.000000	0.000000	0.000000	0.494132	0.208395	0.115447	0.000000	0.000000	0.000000	-0.000000	0.000000	0.000000	0.404725	0.247513	0.132350	0.000000	0.000000	0.000000
0.109674	395.383630	726.224889	29.270179	0.339215	-0.018557	0.414132	0.000000	0.000000	0.000000	75.847636	171.191568	26.917782	0.298656	-0.007749	0.432972	0.000000	0.000000	0.000000	2.918981	11.846205	2.903652	0.271379	-0.000838	0.422247	0.000000	0.000000	0.000000	10.571404	38.843793	8.547240	0.275099	-0.002832	0.400184	0.000000	0.000000	0.000000	-0.000000	0.000000	0.000000	0.195605	0.021728	0.447665	0.000000	0.000000	0.000000	-0.012046	0.059809	0.017725	0.245726	0.006144	0.415397	0.000000	0.000000	0.000000	-0.000000	0.000000	0.000000	0.143114	0.034072	0.387997	0.000000	0.000000	0.000000	-0.000000	0.000000	-0.000000	0.598623	0.167394	0.124017	0.000000	0.000000	0.000000	-0.000000	0.000000	-0.000000	0.573659	0.186701	0.105229	0.000000	0.000000	0.000000	-0.000000	0.000000	-0.000000	0.552567	0.196336	0.111940	0.000000	0.000000	0.000000	-0.000000	0.000000	-0.000000	0.547312	0.190905	0.131198	0.000000	0.000000	0.000000	-0.000000	0.000000	0.000000	0.501209	0.231896	0.084937	0.000000	0.000000	0.000000	-0.000000	0.000000	-0.000000	0.529405	0.205639	0.116114	0.000000	0.000000	0.000000	-0.000000	0.000000	0.000000	0.436759	0.242847	0.132809	0.000000	0.000000	0.000000
0.111070	394.560731	686.741594	51.494352	0.338077	-0.018144	0.414016	0.000000	0.000000	0.000000	57.988724	127.217189	24.761459	0.298480	-0.006427	0.432731	0.000000	0.000000	0.000000	0.692107	3.634074	1.037926	0.272094	0.001121	0.422087	0.000000	0.000000	0.000000	2.972159	12.571533	3.190612	0.275699	-0.000949	0.400034	0.000000	0.000000	0.000000	-0.000000	0.000000	0.000000	0.198231	0.025268	0.447323	0.000000	0.000000	0.000000	-0.001223	0.004683	0.001217	0.247071	0.008639	0.415175	0.000000	0.000000	0.000000	-0.000000	0.000000	0.000000	0.146980	0.038711	0.387527	0.000000	0.000000	0.000000	-0.000000	0.000000	-0.000000	0.626198	0.166338	0.124634	0.000000	0.000000	0.000000	-0.000000	0.000000	-0.000000	0.600217	0.185322	0.105909	0.000000	0.000000	0.000000	-0.000000	0.000000	-0.000000	0.578788	0.194665	0.112560	0.000000	0.000000	0.000000	-0.000000	0.000000	-0.000000	0.573799	0.189136	0.131777	0.000000	0.000000	0.000000	-0.000000	0.000000	-0.000000	0.525421	0.229476	0.085550	0.000000	0.000000	0.000000	-0.000000	0.000000	-0.000000	0.555070	0.203613	0.116701	0.000000	0.000000	0.000000	-0.000000	0.000000	0.000000	0.460199	0.239409	0.133264	0.000000	0.000000	0.000000
0.111680	390.975119	666.393822	60.274663	0.337542	-0.017919	0.413939	0.000000	0.000000	0.000000	49.960486	108.533376	22.919052	0.298407	-0.005802	0.432604	0.000000	0.000000	0.000000	0.323986	2.132021	0.652053	0.272455	0.002028	0.422015	0.000000	0.000000	0.000000	1.434987	6.782205	1.849120	0.276003	-0.000075	0.399964	0.000000	0.000000	0.000000	-0.000000	0.000000	0.000000	0.199487	0.026862	0.447183	0.000000	0.000000	0.000000	-0.000399	0.001401	0.000340	0.247726	0.009780	0.415080	0.000000	0.000000	0.000000	-0.000000	0.000000	0.000000	0.148809	0.040787	0.387339	0.000000	0.000000	0.000000	-0.000000	0.000000	-0.000000	0.638249	0.165877	0.124930	0.000000	0.000000	0.000000	-0.000000	0.000000	-0.000000	0.611827	0.184715	0.106232	0.000000	0.000000	0.000000	-0.000000	0.000000	-0.000000	0.590258	0.193930	0.112858	0.000000	0.000000	0.000000	-0.000000	0.000000	-0.000000	0.585389	0.188360	0.132059	0.000000	0.000000	0.000000	-0.000000	0.000000	-0.000000	0.536027	0.228405	0.085843	0.000000	0.000000	0.000000	-0.000000	0.000000	-0.000000	0.566306	0.202722	0.116985	0.000000	0.000000	0.000000	-0.000000	0.000000	-0.000000	0.470496	0.237893	0.133494	0.000000	0.000000	0.000000
0.113607	370.256971	590.945590	84.387400	0.335722	-0.016996	0.413582	0.000000	0.000000	0.000000	25.756311	54.091426	14.327537	0.298214	-0.003608	0.432114	0.000000	0.000000	0.000000	0.000937	0.163565	0.056065	0.273817	0.005104	0.421775	0.000000	0.000000	0.000000	0.119172	1.102455	0.360249	0.277163	0.002904	0.399731	0.000000	0.000000	0.000000	-0.000000	0.000000	0.000000	0.203909	0.032087	0.446787	0.000000	0.000000	0.000000	-0.000008	0.000022	0.000005	0.250086	0.013589	0.414786	0.000000	0.000000	0.000000	-0.000000	0.000000	0.000000	0.155162	0.047530	0.386830	0.000000	0.000000	0.000000	-0.000000	0.000000	-0.000000	0.676362	0.164420	0.125979	0.000000	0.000000	0.000000	-0.000000	0.000000	-0.000000	0.648568	0.182777	0.107359	0.000000	0.000000	0.000000	-0.000000	0.000000	-0.000000	0.626577	0.191589	0.113906	0.000000	0.000000	0.000000	-0.000000	0.000000	-0.000000	0.622104	0.185903	0.133067	0.000000	0.000000	0.000000	-0.000000	0.000000	-0.000000	0.569671	0.224964	0.086870	0.000000	0.000000	0.000000	-0.000000	0.000000	-0.000000	0.601916	0.199882	0.117995	0.000000	0.000000	0.000000	-0.000000	0.000000	-0.000000	0.503269	0.233054	0.134348	0.000000	0.000000	0.000000
0.115004	348.685669	528.030382	98.246525	0.334269	-0.016115	0.413196	0.000000	0.000000	0.000000	11.116142	22.539780	6.907398	0.298108	-0.001809	0.431660	0.000000	0.000000	0.000000	-0.000936	0.014812	0.005119	0.275013	0.007529	0.421583	0.000000	0.000000	0.000000	0.006323	0.137013	0.047618	0.278191	0.005267	0.399540	0.000000	0.000000	0.000000	-0.000000	0.000000	0.000000	0.207549	0.036035	0.446545	0.000000	0.000000	0.000000	-0.000000	0.000001	0.000000	0.252074	0.016539	0.414576	0.000000	0.000000	0.000000	-0.000000	0.000000	0.000000	0.160318	0.052578	0.386548	0.000000	0.000000	0.000000	-0.000000	0.000000	-0.000000	0.704023	0.163367	0.126849	0.000000	0.000000	0.000000	-0.000000	0.000000	-0.000000	0.675252	0.181356	0.108277	0.000000	0.000000	0.000000	-0.000000	0.000000	-0.000000	0.652976	0.189878	0.114769	0.000000	0.000000	0.000000	-0.000000	0.000000	-0.000000	0.648804	0.184116	0.133908	0.000000	0.000000	0.000000	-0.000000	0.000000	-0.000000	0.594184	0.222420	0.087706	0.000000	0.000000	0.000000	-0.000000	0.000000	-0.000000	0.627831	0.197803	0.118832	0.000000	0.000000	0.000000	-0.000000	0.000000	-0.000000	0.527251	0.229503	0.135081	0.000000	0.000000	0.000000
0.115614	337.918133	498.930667	103.394585	0.333596	-0.015672	0.412987	0.000000	0.000000	0.000000	6.406657	12.736773	4.155701	0.298068	-0.000967	0.431430	0.000000	0.000000	0.000000	-0.000368	0.004694	0.001633	0.275589	0.008638	0.421491	0.000000	0.000000	0.000000	0.001387	0.047632	0.016870	0.278689	0.006351	0.399447	0.000000	0.000000	0.000000	-0.000000	0.000000	0.000000	0.209253	0.037798	0.446451	0.000000	0.000000	0.000000	-0.000000	0.000000	0.000000	0.253015	0.017875	0.414482	0.000000	0.000000	0.000000	-0.000000	0.000000	0.000000	0.162718	0.054823	0.386449	0.000000	0.000000	0.000000	-0.000000	0.000000	-0.000000	0.716114	0.162908	0.127259	0.000000	0.000000	0.000000	-0.000000	0.000000	-0.000000	0.686921	0.180732	0.108705	0.000000	0.000000	0.000000	-0.000000	0.000000	-0.000000	0.664525	0.189127	0.115173	0.000000	0.000000	0.000000	-0.000000	0.000000	-0.000000	0.660488	0.183335	0.134305	0.000000	0.000000	0.000000	-0.000000	0.000000	-0.000000	0.604924	0.221296	0.088095	0.000000	0.000000	0.000000	-0.000000	0.000000	-0.000000	0.639177	0.196890	0.119225	0.000000	0.000000	0.000000	-0.000000	0.000000	-0.000000	0.537784	0.227942	0.135430	0.000000	0.000000	0.000000
